<svg xmlns="http://www.w3.org/2000/svg"  viewBox="0 0 48 48" width="48px" height="48px" baseProfile="basic"><path d="M25.83,24C24.863,17.781,19.486,13,13,13S1.137,17.781,0.17,24H0v2c0,7.168,5.832,13,13,13s13-5.832,13-13v-2H25.83z"/><path d="M39.899,24C39.357,18.258,36.525,14,33,14s-6.357,4.258-6.899,10H26v2c0,6.729,3.075,12,7,12s7-5.271,7-12v-2H39.899z"/><circle cx="13" cy="24" r="12" fill="#fff"/><path d="M47.94,24c-0.278-4.638-1.537-9-3.94-9s-3.662,4.362-3.94,9H40v2c0,5.298,1.252,11,4,11s4-5.702,4-11v-2H47.94z"/><ellipse cx="33" cy="24" fill="#fff" rx="6" ry="11"/><ellipse cx="44" cy="24" fill="#fff" rx="3" ry="10"/><path d="M13,37C5.832,37,0,31.168,0,24s5.832-13,13-13s13,5.832,13,13S20.168,37,13,37z M13,13C6.935,13,2,17.935,2,24	s4.935,11,11,11s11-4.935,11-11S19.065,13,13,13z"/><path d="M33,36c-3.925,0-7-5.271-7-12s3.075-12,7-12s7,5.271,7,12S36.925,36,33,36z M33,14c-2.71,0-5,4.579-5,10s2.29,10,5,10	s5-4.579,5-10S35.71,14,33,14z"/><path d="M44,35c-2.748,0-4-5.702-4-11s1.252-11,4-11s4,5.702,4,11S46.748,35,44,35z M44,15.003c-0.565,0.201-2,3.198-2,8.997	c0,5.851,1.46,8.85,2.015,9.002C44.54,32.85,46,29.851,46,24C46,18.201,44.565,15.204,44,15.003z"/></svg>